HIERARCHY
ROOT hip
{
  OFFSET 0 0 0
  CHANNELS 6 Xposition Yposition Zposition Zrotation Yrotation Xrotation
  JOINT abdomen
  {
    OFFSET 0 20.6881 -0.73152
    CHANNELS 3 Zrotation Xrotation Yrotation
    JOINT chest
    {
      OFFSET 0 11.7043 -0.48768
      CHANNELS 3 Zrotation Xrotation Yrotation
      JOINT neck
      {
        OFFSET 0 22.1894 -2.19456
        CHANNELS 3 Zrotation Xrotation Yrotation
        JOINT head
        {
          OFFSET -0.24384 7.07133 1.2192
          CHANNELS 3 Zrotation Xrotation Yrotation
          JOINT leftEye
          {
            OFFSET 4.14528 8.04674 8.04672
            CHANNELS 3 Zrotation Xrotation Yrotation
            End Site
            {
              OFFSET 1 0 0
            }
          }
          JOINT rightEye
          {
            OFFSET -3.6576 8.04674 8.04672
            CHANNELS 3 Zrotation Xrotation Yrotation
            End Site
            {
              OFFSET 1 0 0
            }
          }
        }
      }
      JOINT rCollar
      {
        OFFSET -2.68224 19.2634 -4.8768
        CHANNELS 3 Zrotation Xrotation Yrotation
        JOINT rShldr
        {
          OFFSET -8.77824 -1.95073 1.46304
          CHANNELS 3 Zrotation Xrotation Yrotation
          JOINT rForeArm
          {
            OFFSET -28.1742 -1.7115 0.48768
            CHANNELS 3 Zrotation Xrotation Yrotation
            JOINT rHand
            {
              OFFSET -22.5879 0.773209 7.07136
              CHANNELS 3 Zrotation Xrotation Yrotation
              JOINT rThumb1
              {
                OFFSET -1.2192 -0.487915 3.41376
                CHANNELS 3 Zrotation Xrotation Yrotation
                JOINT rThumb2
                {
                  OFFSET -3.37035 -0.52449 3.41376
                  CHANNELS 3 Zrotation Xrotation Yrotation
                  End Site
                  {
                    OFFSET -1.78271 -1.18214 1.43049
                  }
                }
              }
              JOINT rIndex1
              {
                OFFSET -7.75947 0.938293 5.60832
                CHANNELS 3 Zrotation Xrotation Yrotation
                JOINT rIndex2
                {
                  OFFSET -2.54057 -0.884171 1.56538
                  CHANNELS 3 Zrotation Xrotation Yrotation
                  End Site
                  {
                    OFFSET -1.62519 -0.234802 1.16502
                  }
                }
              }
              JOINT rMid1
              {
                OFFSET -8.24714 1.18213 3.41376
                CHANNELS 3 Zrotation Xrotation Yrotation
                JOINT rMid2
                {
                  OFFSET -3.10165 -0.590103 1.0647
                  CHANNELS 3 Zrotation Xrotation Yrotation
                  End Site
                  {
                    OFFSET -2.48547 -0.328903 0.83742
                  }
                }
              }
              JOINT rRing1
              {
                OFFSET -8.82822 0.546677 1.51678
                CHANNELS 3 Zrotation Xrotation Yrotation
                JOINT rRing2
                {
                  OFFSET -2.60934 -0.819778 -0.0198488
                  CHANNELS 3 Zrotation Xrotation Yrotation
                  End Site
                  {
                    OFFSET -2.33842 -0.294052 0.168128
                  }
                }
              }
              JOINT rPinky1
              {
                OFFSET -8.27202 -0.0477905 -0.4584
                CHANNELS 3 Zrotation Xrotation Yrotation
                JOINT rPinky2
                {
                  OFFSET -1.82734 -0.647385 -0.700984
                  CHANNELS 3 Zrotation Xrotation Yrotation
                  End Site
                  {
                    OFFSET -1.69225 -0.51767 -0.607171
                  }
                }
              }
            }
          }
        }
      }
      JOINT lCollar
      {
        OFFSET 2.68224 19.2634 -4.8768
        CHANNELS 3 Zrotation Xrotation Yrotation
        JOINT lShldr
        {
          OFFSET 8.77824 -1.95073 1.46304
          CHANNELS 3 Zrotation Xrotation Yrotation
          JOINT lForeArm
          {
            OFFSET 28.1742 -1.7115 0.48768
            CHANNELS 3 Zrotation Xrotation Yrotation
            JOINT lHand
            {
              OFFSET 22.5879 0.773209 7.07136
              CHANNELS 3 Zrotation Xrotation Yrotation
              JOINT lThumb1
              {
                OFFSET 1.2192 -0.487915 3.41376
                CHANNELS 3 Zrotation Xrotation Yrotation
                JOINT lThumb2
                {
                  OFFSET 3.37035 -0.52449 3.41376
                  CHANNELS 3 Zrotation Xrotation Yrotation
                  End Site
                  {
                    OFFSET 1.78271 -1.18214 1.43049
                  }
                }
              }
              JOINT lIndex1
              {
                OFFSET 7.75947 0.938293 5.60832
                CHANNELS 3 Zrotation Xrotation Yrotation
                JOINT lIndex2
                {
                  OFFSET 2.54057 -0.884171 1.56538
                  CHANNELS 3 Zrotation Xrotation Yrotation
                  End Site
                  {
                    OFFSET 1.62519 -0.234802 1.16502
                  }
                }
              }
              JOINT lMid1
              {
                OFFSET 8.24714 1.18213 3.41376
                CHANNELS 3 Zrotation Xrotation Yrotation
                JOINT lMid2
                {
                  OFFSET 3.10165 -0.590103 1.0647
                  CHANNELS 3 Zrotation Xrotation Yrotation
                  End Site
                  {
                    OFFSET 2.48547 -0.328903 0.83742
                  }
                }
              }
              JOINT lRing1
              {
                OFFSET 8.82822 0.546677 1.51678
                CHANNELS 3 Zrotation Xrotation Yrotation
                JOINT lRing2
                {
                  OFFSET 2.60934 -0.819778 -0.0198488
                  CHANNELS 3 Zrotation Xrotation Yrotation
                  End Site
                  {
                    OFFSET 2.33842 -0.294052 0.168128
                  }
                }
              }
              JOINT lPinky1
              {
                OFFSET 8.27202 -0.0477905 -0.4584
                CHANNELS 3 Zrotation Xrotation Yrotation
                JOINT lPinky2
                {
                  OFFSET 1.82734 -0.647385 -0.700984
                  CHANNELS 3 Zrotation Xrotation Yrotation
                  End Site
                  {
                    OFFSET 1.69225 -0.51767 -0.607171
                  }
                }
              }
            }
          }
        }
      }
    }
  }
  JOINT rButtock
  {
    OFFSET -8.77824 4.35084 1.2192
    CHANNELS 3 Zrotation Xrotation Yrotation
    JOINT rThigh
    {
      OFFSET 0 -1.70687 -2.19456
      CHANNELS 3 Zrotation Xrotation Yrotation
      JOINT rShin
      {
        OFFSET 0 -36.8199 0.73152
        CHANNELS 3 Zrotation Xrotation Yrotation
        JOINT rFoot
        {
          OFFSET 0.73152 -45.1104 -5.12064
          CHANNELS 3 Zrotation Xrotation Yrotation
          End Site
          {
            OFFSET -1.1221 -3.69964 12.103
          }
        }
      }
    }
  }
  JOINT lButtock
  {
    OFFSET 8.77824 4.35084 1.2192
    CHANNELS 3 Zrotation Xrotation Yrotation
    JOINT lThigh
    {
      OFFSET 0 -1.70687 -2.19456
      CHANNELS 3 Zrotation Xrotation Yrotation
      JOINT lShin
      {
        OFFSET 0 -36.8199 0.73152
        CHANNELS 3 Zrotation Xrotation Yrotation
        JOINT lFoot
        {
          OFFSET -0.73152 -45.1104 -5.12064
          CHANNELS 3 Zrotation Xrotation Yrotation
          End Site
          {
            OFFSET 1.1221 -3.69964 12.103
          }
        }
      }
    }
  }
}
MOTION
Frames:	4
Frame Time:	0.03333
0.0 0.0 0.0 0.0 0.0 0.0 0.0 0.0 0.0 0.0 0.0 0.0 0.0 0.0 0.0 0.0 0.0 0.0 0.0 0.0 0.0 0.0 0.0 0.0 0.0 0.0 0.0 0.0 0.0 0.0 0.0 0.0 0.0 0.0 0.0 0.0 0.0 0.0 0.0 0.0 0.0 0.0 0.0 0.0 0.0 0.0 0.0 0.0 0.0 0.0 0.0 0.0 0.0 0.0 0.0 0.0 0.0 0.0 0.0 0.0 0.0 0.0 0.0 0.0 0.0 0.0 0.0 0.0 0.0 0.0 0.0 0.0 0.0 0.0 0.0 0.0 0.0 0.0 0.0 0.0 0.0 0.0 0.0 0.0 0.0 0.0 0.0 0.0 0.0 0.0 0.0 0.0 0.0 0.0 0.0 0.0 0.0 0.0 0.0 0.0 0.0 0.0 0.0 0.0 0.0 0.0 0.0 0.0 0.0 0.0 0.0 0.0 0.0 0.0 0.0 0.0 0.0 0.0 0.0 0.0 0.0 0.0 0.0 0.0 0.0 0.0 0.0 0.0 0.0 0.0 0.0 0.0
0.0638 63.9352 0.013200000000000002 -8.135865 85.622063 -9.054165 -1.499568 2.315504 70.70107 8.645978 3.881234 -56.388822 8.219565 -3.688237 136.707362 41.281713 36.867388 114.066329 -133.550058 15.653517 35.523613 35.425017 -25.123584 -69.805538 73.791684 21.24337 13.105692 5.497666 14.969809 2.465371 -174.10945 -29.663297 1.119747 9.001325 14.280561 -100.742267 170.663027 6.139035 59.614032 -149.481855 7.575118 -77.186821 -21.280997 9.939331 -128.242787 -3.575143 17.903895 -164.365417 179.957341 21.994446 -66.090764 0.705237 -46.203715 -70.652849 90.781662 12.796928 -95.906999 -100.128381 43.703225 78.797353 29.015852 5.1278 -66.368101 -114.189161 73.966003 -177.556384 -78.930982 -6.923897 -1.127167 -6.246276 14.231575 -8.528056 2.091546 -6.930099 -160.650502 -15.60498 -21.689731 57.077917 87.690781 -1.660938 -40.735383 129.013965 2.013801 -136.974559 -18.785318 5.960348 -47.495039 172.324339 60.458339 57.127949 -179.758879 6.153487 47.595427 -143.449923 44.861341 36.43926 -89.629512 -5.16124 82.692908 -53.535224 -34.188494 -21.46892 -154.524277 28.946788 44.449807 -6.138997 -0.948119 15.934766 53.953794 -0.042217 89.977926 0.90373 55.097862 -0.0 -2.450288 4.035027 -142.915486 70.161629 -16.917682 -91.614301 44.491373 -0.368247 89.944518 2.674836 44.526129 75.050759 -7.290143 -1.008505 -82.662855 -77.51734 25.124348 83.295171
0.9048 61.642300000000006 -0.9239 -18.138856 -67.613116 20.531577 7.082078 8.631358 140.380763 1.304158 5.830062 -131.431145 -2.528885 8.668999 -4.389175 10.227703 -20.324207 12.436453 -12.387977 -2.614632 23.749817 -27.522477 -14.624966 55.306684 -11.87057 44.966451 14.445699 -4.572139 40.422333 68.395601 -29.614771 -62.262401 25.49684 3.232082 2.229283 -4.836997 -164.074621 -2.128942 104.662147 -134.676472 -15.929572 119.715087 -133.933851 23.459938 85.042985 94.222209 -41.909904 37.057184 27.606951 -63.713345 22.822327 -156.464026 -22.899735 167.086177 -16.127739 -7.029861 18.5839 -93.63622 -65.861104 -131.411417 108.115128 68.321522 -69.435317 90.771194 75.427025 -85.835452 154.270683 -46.299959 -178.345851 -177.872326 -13.5482 139.60844 -174.715984 55.975482 -117.451484 -176.027163 3.365155 -153.643417 152.411038 0.995262 -96.557265 130.98581 -18.719371 -84.919577 27.390109 -65.793293 76.613226 -102.580878 -26.395849 -13.508867 176.649562 -77.94407 -178.878857 -178.941345 26.120549 -169.387538 8.34536 81.803634 -9.085201 165.628634 -13.495243 -172.985213 161.051285 -1.07677 87.630671 -16.001611 1.88039 54.762977 -3.55686 -11.296257 3.796998 -5.896949 -0.185112 -88.208365 -54.249185 13.495734 -59.838331 138.115696 -44.080448 -145.959007 86.100302 40.332288 71.329023 -95.758802 14.468425 -0.0 16.611399 57.997287 -103.98952 147.805187 1.186911 -96.036563
2.1486 68.26989999999999 -2.3066 -21.214445 -66.393726 23.399838 5.295155 13.182613 0.0 -0.094765 -8.133084 15.027016 -8.704493 22.432871 -78.828998 33.606049 3.691616 84.547278 -95.10075 0.801513 0.87624 147.673342 -17.827596 56.839908 -5.979792 36.49486 2.461417 58.592845 6.133601 35.34238 -10.642825 0.727583 52.04975 -3.483659 21.191382 -1.448037 -0.788171 -17.066677 -2.433003 -135.286564 -7.797503 112.074601 4.80238 -24.525541 1.167218 -1.977111 12.289283 0.141708 -55.529507 44.564162 33.123089 -70.338681 51.290667 90.815012 -86.057625 74.399844 86.911423 27.622486 -61.698467 30.916276 -171.033783 60.03878 -125.926894 -66.185717 -15.279006 -37.597313 155.495634 -4.66667 -158.649888 49.299867 16.295993 0.81872 118.256907 -23.613506 147.399049 -23.588285 -41.418142 -17.147322 9.227612 -11.350221 -5.24997 -3.322196 37.011588 9.853869 -17.293 -42.33566 17.129574 -136.170863 -41.454912 -71.247443 8.722461 -32.409035 17.702884 157.839334 -8.037422 -131.302896 129.054588 -16.422025 160.716066 10.372978 -76.877245 72.419322 -116.486291 67.096349 108.685805 146.56318 40.748004 -115.525659 8.414846 -0.432935 -0.0 -14.493139 -2.841522 93.836911 56.082608 -9.368682 129.738731 28.661526 18.490479 100.892991 -0.254912 -0.846311 -16.763146 56.379443 -44.642186 141.152786 69.534838 -3.728044 0.475079 -140.716707 30.634319 60.367111
